<svg xmlns="http://www.w3.org/2000/svg" width="512" height="512">
    <path style="stroke:none;fill-rule:nonzero;fill:#1fc625;fill-opacity:1" d="M298.668 42.668C204.41 42.668 128 119.078 128 213.332 128 307.59 204.41 384 298.668 384c94.254 0 170.664-76.41 170.664-170.668 0-94.254-76.41-170.664-170.664-170.664M105.172 124.16C65.707 156.586 42.668 205.012 42.668 256c0 94.258 76.41 170.668 170.664 170.668 13.656 0 27.094-1.707 40.11-4.906-37.547-8.32-72.11-27.094-100.481-52.91C111.359 346.668 85.332 303.148 85.332 256c0-6.398.64-12.586 1.496-18.988-.855-7.89-1.496-15.785-1.496-23.68 0-30.719 6.828-61.227 19.84-89.172m280.75 5.547L416 160 277.332 298.668l-80.852-80.856 30.293-30.292 50.559 50.773"/>
</svg>
