<svg xmlns="http://www.w3.org/2000/svg" width="24" height="24">
    <path style="stroke:none;fill-rule:nonzero;fill:#ffffff;fill-opacity:1" d="M21.75 3H2.25A2.25 2.25 0 0 0 0 5.25v13.5A2.25 2.25 0 0 0 2.25 21h19.5A2.25 2.25 0 0 0 24 18.75V5.25A2.25 2.25 0 0 0 21.75 3Zm0 2.25v1.914c-1.05.856-2.727 2.184-6.309 4.992-.789.621-2.351 2.11-3.441 2.094-1.086.016-2.652-1.477-3.441-2.094C4.977 9.352 3.3 8.02 2.25 7.164V5.25Zm-19.5 13.5v-8.7c1.074.856 2.598 2.055 4.918 3.876 1.027.804 2.82 2.586 4.832 2.574 2.004.012 3.773-1.742 4.832-2.574 2.32-1.82 3.844-3.02 4.918-3.875v8.699Zm0 0"/>
</svg>
