<svg xmlns="http://www.w3.org/2000/svg" width="24" height="24">
    <path style="stroke:none;fill-rule:nonzero;fill:#ffffff;fill-opacity:1" d="M12 4c2.2 0 4 1.8 4 4 0 2.102-2.102 5.5-4 7.898-1.898-2.5-4-5.796-4-7.898 0-2.2 1.8-4 4-4m0-2C8.7 2 6 4.7 6 8c0 4.5 6 11 6 11s6-6.602 6-11c0-3.3-2.7-6-6-6m0 4c-1.102 0-2 .898-2 2 0 1.102.898 2 2 2 1.102 0 2-.898 2-2 0-1.102-.898-2-2-2m8 13c0 2.2-3.602 4-8 4s-8-1.8-8-4c0-1.3 1.2-2.398 3.102-3.2l.597.9C6.7 17.2 6 17.8 6 18.5c0 1.398 2.7 2.5 6 2.5s6-1.102 6-2.5c0-.7-.7-1.3-1.8-1.8l.6-.9c2 .802 3.2 1.9 3.2 3.2Zm0 0"/>
</svg>
