<svg xmlns="http://www.w3.org/2000/svg" width="24" height="24">
    <path style="stroke:none;fill-rule:nonzero;fill:#ffffff;fill-opacity:1" d="M22 12c0-5.54-4.46-10-10-10-1.172 0-2.3.191-3.379.559l.7 1.941A7.156 7.156 0 0 1 12 3.969c4.41 0 8.031 3.62 8.031 8.031 0 4.41-3.62 8.031-8.031 8.031-4.41 0-8.031-3.62-8.031-8.031 0-.941.191-1.879.531-2.719l-1.941-.66A10.425 10.425 0 0 0 2 12c0 5.54 4.46 10 10 10s10-4.46 10-10M5.469 3.969c.851 0 1.531.71 1.531 1.5C7 6.32 6.32 7 5.469 7c-.79 0-1.5-.68-1.5-1.531 0-.79.71-1.5 1.5-1.5M18 12c0-3.328-2.672-6-6-6s-6 2.672-6 6 2.672 6 6 6 6-2.672 6-6m-3 0-5 3V9"/>
</svg>
